# xmcd
#
# Track frame offsets:
#	150
#	13799
#	27590
#	41586
#	54945
#	69338
#	81750
#	95684
#	110168
#	125959
#	138156
#	153812
#	167624
#	184426
#
# Disc length: 2662 seconds
#
# Revision: 1
# Processed by: cddbd v1.5.2PL0 Copyright (c) Steve Scherf et al.
# Submitted via: audiograbber 1.83.01
#
DISCID=bf0a640e
DTITLE=John Lee Hooker - Speciality Profiles John Lee Hooker
DYEAR=2006
DGENRE=Blues
TTITLE0=Boogie Chillen #2
TTITLE1=I'm Mad
TTITLE2=Everybody's Blues
TTITLE3=Burnin' Hell
TTITLE4=Do My Baby Think Of Me
TTITLE5=Goin' Down Highway 51
TTITLE6=My Baby's Got Something
TTITLE7=I Need Lovin'
TTITLE8=Grinder Man
TTITLE9=No More Diggin' (aka No More Foolin')
TTITLE10=I Need Love So Bad
TTITLE11=Huckle Up Baby
TTITLE12=Nothin' But Trouble (Don't Take Your Wife's Family In)
TTITLE13=Odds Against Me (aka Backbiters and Syndicaters)
EXTD=
EXTT0=
EXTT1=
EXTT2=
EXTT3=
EXTT4=
EXTT5=
EXTT6=
EXTT7=
EXTT8=
EXTT9=
EXTT10=
EXTT11=
EXTT12=
EXTT13=
PLAYORDER=
